<?xml version="1.0" encoding="utf-8"?>
<!-- Generator: Adobe Illustrator 26.5.0, SVG Export Plug-In . SVG Version: 6.00 Build 0)  -->
<svg version="1.1" id="Layer_1" xmlns="http://www.w3.org/2000/svg" xmlns:xlink="http://www.w3.org/1999/xlink" x="0px" y="0px"
	 viewBox="0 0 100 100" style="enable-background:new 0 0 100 100;" xml:space="preserve">
<style type="text/css">
	.st0{fill-rule:evenodd;clip-rule:evenodd;}
</style>
<path class="st0" d="M94.08,60.24h0.26c0.12-0.01,0.25,0.02,0.34,0.11c0.02,0.01,0.04,0.03,0.06,0.05c0.16,0.19,0.3,0.39,0.4,0.62
	l0.25,0.46h0.51l-0.32-0.57c-0.12-0.2-0.25-0.39-0.4-0.57c-0.06-0.06-0.14-0.12-0.23-0.15c0.21-0.01,0.41-0.1,0.56-0.27
	c0.14-0.14,0.22-0.35,0.22-0.56c0-0.15-0.05-0.3-0.13-0.42c-0.08-0.13-0.2-0.23-0.34-0.28c-0.17-0.06-0.34-0.08-0.51-0.08
	c-0.04,0-0.1-0.01-0.16-0.01h-0.93l0.01,2.91h0.43L94.08,60.24L94.08,60.24L94.08,60.24z M94.08,58.97h0.66
	c0.09,0.01,0.18,0.02,0.27,0.05c0.08,0.02,0.14,0.08,0.19,0.15c0.04,0.07,0.07,0.15,0.06,0.23c0,0.12-0.05,0.23-0.13,0.31
	c-0.11,0.09-0.25,0.13-0.39,0.13h-0.66V58.97L94.08,58.97L94.08,58.97z M29.77,59.43l3.87-0.01l-3.88-6.95l-3.28-5.85l-13.85,9.03
	l2.13,3.81L29.77,59.43L29.77,59.43z M65.74,59.36l18.89-0.04l-11.8-21.13L59.78,14.87l-5.35,3.49l-8.5,5.53l8.54,15.28L65.74,59.36
	z M59.15,66.35c-1.37-0.96-2.96-1.46-4.59-1.46h-0.04c-4.7,0.01-8.5,4.13-8.49,9.21s3.83,9.18,8.53,9.17h0.04
	c1.63,0,3.22-0.52,4.58-1.48v0.96l3.91-0.01l-0.05-23.37l-3.91,0.01L59.15,66.35z M59.17,75.02c-0.43,2.37-2.34,4.09-4.58,4.11
	h-0.04c-2.58-0.02-4.66-2.29-4.65-5.08c0.02-2.75,2.08-4.99,4.62-5.02h0.04c2.23,0,4.16,1.71,4.59,4.07L59.17,75.02z M77.51,66.31
	c-1.37-0.96-2.96-1.46-4.59-1.46h-0.04c-4.7,0.01-8.5,4.13-8.49,9.21s3.83,9.18,8.53,9.17h0.04c1.63,0,3.22-0.51,4.58-1.48v0.96
	l3.91-0.01l-0.04-17.4l-3.91,0.01L77.51,66.31L77.51,66.31z M77.53,74.98c-0.43,2.37-2.34,4.09-4.58,4.11h-0.04
	c-2.58-0.02-4.66-2.29-4.65-5.08c0.02-2.75,2.08-4.99,4.62-5.02h0.04c2.23,0,4.15,1.71,4.59,4.07L77.53,74.98z M95.34,72.84
	c-0.14-0.08-0.34-0.15-0.57-0.25c-1.4-0.48-2.83-0.87-4.27-1.18c-1.73-0.42-2.61-0.95-2.61-1.63c-0.02-0.44,0.15-0.86,0.46-1.15
	c0.4-0.37,1.12-0.56,2.15-0.56c1.05,0,1.8,0.24,2.25,0.72c0.33,0.45,0.54,0.99,0.6,1.56l4.15-0.01c0-2.2-0.84-3.77-2.47-4.73
	c-0.09-0.06-0.18-0.11-0.27-0.15c-1.13-0.57-2.64-0.86-4.51-0.86c-2.28,0-4,0.66-5.14,1.97c-0.9,1.04-1.39,2.43-1.35,3.85
	c0,1.89,0.87,3.25,2.61,4.13c0.66,0.34,2.26,0.81,4.81,1.4c1.7,0.4,2.56,0.97,2.57,1.7c0,0.45-0.21,0.88-0.54,1.15
	c-0.47,0.43-1.19,0.65-2.15,0.66c-1.28,0-2.18-0.23-2.71-0.67c-0.54-0.44-0.84-1.14-0.81-1.87l-4.35,0.01
	c0,2.14,0.84,3.72,2.52,4.77c1.33,0.82,3.08,1.23,5.24,1.23c1.31,0.02,2.62-0.24,3.83-0.78c0.23-0.11,0.43-0.22,0.64-0.34
	c1.7-1.02,2.56-2.65,2.55-4.88C97.98,75.1,97.1,73.74,95.34,72.84L95.34,72.84z M15.88,66.44c-1.37-0.96-2.97-1.46-4.6-1.46h-0.04
	c-4.7,0.01-8.5,4.13-8.49,9.21c0.01,5.08,3.83,9.18,8.53,9.17h0.04c1.63,0,3.23-0.52,4.6-1.48v0.96l3.91-0.01l-0.04-17.4l-3.91,0.01
	L15.88,66.44z M15.9,75.12c-0.43,2.37-2.35,4.09-4.59,4.11h-0.04c-2.58-0.02-4.66-2.29-4.65-5.08c0.02-2.75,2.08-4.99,4.62-5.02
	h0.04c2.24,0,4.17,1.7,4.61,4.07L15.9,75.12z M40.27,63.54l4.25-0.01l-0.01-4.04l-4.25,0.01L40.27,63.54z M40.31,82.78l4.25-0.01
	l-0.04-17.86l-4.25,0.01L40.31,82.78z M34.42,66.4c-1.37-0.96-2.97-1.46-4.6-1.46h-0.04c-4.7,0.01-8.5,4.13-8.49,9.21
	s3.83,9.18,8.53,9.17h0.04c1.63,0,3.23-0.52,4.6-1.48v0.96l3.91-0.01l-0.05-23.37l-3.91,0.01L34.42,66.4z M34.44,75.08
	c-0.43,2.37-2.35,4.09-4.59,4.11h-0.04c-2.58-0.02-4.66-2.29-4.65-5.08c0.02-2.75,2.08-4.99,4.62-5.02h0.04
	c2.24,0,4.17,1.7,4.61,4.07L34.44,75.08z M59.12,59.37l-4.63-8.31L43.13,30.74l-13.4,8.75l-0.46,0.29l0.46,0.82l10.52,18.81
	L59.12,59.37L59.12,59.37z"/>
</svg>
