<?xml version="1.0" encoding="utf-8"?>
<!-- Generator: Adobe Illustrator 26.5.0, SVG Export Plug-In . SVG Version: 6.00 Build 0)  -->
<svg version="1.1" id="Layer_1" xmlns="http://www.w3.org/2000/svg" xmlns:xlink="http://www.w3.org/1999/xlink" x="0px" y="0px"
	 viewBox="0 0 100 100" style="enable-background:new 0 0 100 100;" xml:space="preserve">
<style type="text/css">
	.st0{fill:#E61A27;}
</style>
<g transform="translate(-.001 .001)">
	<path class="st0" d="M39.25,58.04c-3.61-2.27-8.51-2.67-16.41-0.53c-8.42,1.93-11.23,3.17-14.92,0.68
		C6.51,56.98,6,55.01,6.38,52.18c0.88-4.62,3.26-9.06,7.48-13.99c2.36-2.56,4.54-4.76,7.43-5.65c2.21-0.55,2.01,1.14,1.74,1.39
		c-0.39-0.01-0.78,0.09-1.12,0.28c-0.3,0.23-1.11,0.95-1.16,1.93c-0.06,1.5,1.53,1.19,2.21,0.36c0.74-0.93,1.83-2.7,0.97-4.36
		c-0.39-0.61-1.03-1.02-1.75-1.13c-2.64-0.15-5.11,1.08-7.38,2.44C9.83,36.82,5.85,41.49,3.6,46.6c-1.3,3.08-2.47,7.5-0.71,11.09
		c1.36,2.49,4.18,3.82,7.55,3.54c2.36-0.24,5.22-0.99,7.14-1.44s11.76-3.75,14.99,1.99c0.79-1.29,2.22-2.08,3.76-2.08
		c2.21-0.2,5.39,0.62,7.71,2.29C43.27,60.86,41.08,59.19,39.25,58.04z"/>
	<path class="st0" d="M23.85,38.77c-1.84-1.18-5.54,1.07-8.5,4.94c-2.71,3.46-3.88,7.49-2.6,9.35c1.89,2.19,5.41-1,6.9-2.7l0.19-0.2
		c1.02-1.07,1.8-2.35,2.56-3.58c0,0,0.7-1.13,0.73-1.18c0.43-0.08,0.95-0.2,1.54-0.36c-0.01,0.03-2.24,3.69-2.01,5.51
		c0.07,0.55,0.02,2.58,2.04,3.2c2.7,0.44,4.86-1.6,6.76-3.42c0,0,0.32-0.3,0.51-0.48c-0.05,0.18-0.11,0.42-0.11,0.42
		c-0.79,2.68,0.28,3.25,0.94,3.46c2.02,0.57,4.42-2.29,4.43-2.29c-0.06,0.9-0.25,1.65,0.73,2.24c0.92,0.32,1.85-0.17,2.55-0.63
		c2.54-1.75,4.59-4.49,6.25-6.85h-1.06c-0.01,0-2.6,3.67-4.29,4.46c0,0-0.31,0.15-0.49,0.03c-0.22-0.18-0.13-0.56,0-0.83
		c0.01-0.02,6.5-11.01,6.5-11.01h-3.07c0,0-0.33,0.53-0.36,0.56c-0.02-0.02-0.07-0.11-0.1-0.15c-1.9-2.56-6.2,1.38-9.44,5.95
		c-1.25,1.76-2.83,3.74-4.48,5.17c0,0-2.44,2.18-3.48,0.61c-0.38-0.66-0.26-1.62-0.05-2.25c1.21-3.37,3.3-6.43,5.68-8.27
		c0.67-0.51,1.4-0.66,1.76-0.44c0.35,0.2,0.4,0.69,0.18,1.03c-0.51-0.04-1.01,0.15-1.36,0.51c-0.71,0.73-0.96,1.43-0.73,2.09
		c1.1,1.52,3.29-1.49,3.18-3.33c-0.03-0.65-0.38-1.24-0.93-1.58c-0.8-0.47-2.02-0.35-2.81,0.03c-1.06,0.39-2.73,1.75-3.71,2.81
		c-1.23,1.33-3.34,2.8-4,2.63C23.94,43.66,25.72,40.1,23.85,38.77L23.85,38.77z M38.62,44.04c0.6-0.81,2.33-2.96,2.75-3.33
		c1.42-1.22,1.99-0.68,2.04-0.3c-1.33,2.32-2.9,4.98-4.37,7.37c0-0.01-0.46,0.68-0.46,0.68c-0.65,0.97-1.31,1.8-2.37,2.38
		c-0.19,0.06-0.4,0.04-0.57-0.06c-0.19-0.13-0.29-0.35-0.26-0.57C35.45,49.47,36.22,47.19,38.62,44.04L38.62,44.04z M21.95,45.43
		c0,0-0.03,0.08-0.04,0.1c0,0-1.34,2.12-1.34,2.12c-0.8,1.05-1.81,2.36-3.06,3c-0.37,0.12-0.89,0.2-1.15-0.12
		c-0.56-0.65-0.27-1.55-0.04-2.28l0.08-0.26c0.67-1.77,1.73-3.33,2.76-4.77c0.02-0.01,0.03-0.02,0.05-0.02
		c0,0.01,0.01,0.02,0.01,0.03c0.65,1.21,1.86,1.78,2.77,2.04c0.01,0,0.01,0.01,0.01,0.03C21.99,45.34,21.97,45.39,21.95,45.43
		L21.95,45.43z M23.21,42.93c-0.01,0.02-0.59,1.33-0.59,1.33c-0.09,0.07-0.22,0.03-0.37,0l-0.26-0.04
		c-0.83-0.25-1.45-0.79-1.65-1.43c-0.27-1.25,0.83-2.23,1.31-2.58c0.46-0.31,1.18-0.48,1.6-0.16c0.25,0.31,0.37,0.7,0.35,1.09
		C23.59,41.71,23.41,42.34,23.21,42.93L23.21,42.93z M61.96,46.95c-0.32-0.64-1.01-1.03-1.74-0.98c-2.43,0.22-4.8,2.17-6.05,4.96
		c-0.65,1.44-1.01,2.62-1.25,4.51c0.76-0.85,2.29-2.24,4.04-3.01c0.21-1.23,0.71-2.4,1.45-3.42c0.46-0.67,1.38-1.74,2.41-1.46
		c0.9,0.29,0.58,2.73-0.61,5.08c-0.91,1.75-2.13,3.33-3.61,4.66c-1.21,1-3.01,2.22-4.58,1.28c-0.99-0.57-1.49-1.77-1.39-3.31
		c0.47-4.37,2.51-8.1,5.43-12.34c3.01-3.94,6.33-7.99,10.8-10.14c0.91-0.45,1.76-0.55,2.49-0.28c0,0-4.2,2.25-6.2,6.42
		c-0.51,1.06-1.22,2.49-0.5,3.75c0.37,0.66,1.03,0.71,1.57,0.68c2.45-0.55,4.04-2.79,5.33-4.83c0.75-1.55,1.42-3.09,1.42-4.81
		c0-0.21-0.01-0.48-0.03-0.69c1.17-0.61,3.57,0.47,3.57,0.47c1.88,0.61,5.87,3.59,7.22,4.17c0.66-0.74,1.74-1.87,2.35-2.43
		l-0.88-0.53c-1.41-0.84-2.9-1.64-4.37-2.43c-3.33-1.78-6.04-1.15-7.42-0.67c-0.54,0.19-1.04,0.36-1.04,0.36
		c-1.02-1.09-2.7-0.99-3.94-0.69c-4.45,1.25-8.59,4.29-13.02,9.56c-3.26,4.13-5.28,7.7-6.36,11.22c-0.83,2.37-1.08,5.86,0.94,7.93
		c1.72,1.76,4.01,1.38,5.62,0.75c3.5-1.68,6.64-5.3,8.2-9.47C62.19,50.03,62.61,48.28,61.96,46.95L61.96,46.95z M69.99,33.9
		c-0.46,5.18-4.59,8.22-5.61,8.46c-0.62,0.12-1.67-0.15-0.73-2.32c1.39-2.93,3.76-5.41,6.3-6.69C70,33.53,70.02,33.71,69.99,33.9
		L69.99,33.9z M94.46,34.55c-2.22,1.23-4.52,2.03-7.3,1.75c-0.77,0.85-1.52,1.72-2.21,2.62c3.91,0.97,8.05-1.19,10.36-3.24
		c1.52-1.32,2.77-2.91,3.7-4.68C97.68,32.41,96.15,33.6,94.46,34.55L94.46,34.55z M52.53,38.87h-2.91l-1.64,2.6h2.91L52.53,38.87z"
		/>
	<path class="st0" d="M87.15,58.28c-0.31,0.21-0.75,0.05-0.59-0.43c0.41-1.21,2.04-3.68,2.04-3.68l4.53-7.85h-3.11
		c-0.15,0.24-0.46,0.78-0.46,0.78c-0.21-0.32-0.46-0.61-0.75-0.87c-0.76-0.47-1.87-0.25-2.64,0.18c-3.34,1.91-5.78,5.67-7.7,8.61
		c0,0-2.02,3.26-3.15,3.51c-0.88,0.07-0.79-1.08-0.75-1.35c0.34-1.94,1.13-3.78,1.92-5.46c1.81-1.23,3.53-2.6,5.13-4.09
		c3.63-3.39,6.69-7.22,7.14-8.08c-0.35,0.06-0.7,0.1-1.06,0.11c-2.79,3.8-8.51,9.33-10.24,10.15c0.77-1.8,5.73-10.4,9.95-14.52
		l0.66-0.62c1.03-0.98,2.09-1.98,2.92-2.15c0.09-0.01,0.2,0,0.3,0.2c0.04,0.76-0.25,1.32-0.59,1.97l-0.47,0.94
		c0.37-0.07,0.74-0.15,1.1-0.26c0.5-0.93,1.06-1.97,0.86-3.2c-0.06-0.39-0.36-0.7-0.75-0.77c-1.26-0.23-2.63,0.68-3.73,1.41
		l-0.04,0.03c-5.67,4.34-10.47,10.59-14.66,19.13c-0.3,0.22-1.48,0.49-1.68,0.36c0.41-0.83,0.93-1.95,1.2-3.16
		c0.05-0.35,0.08-0.7,0.09-1.05c0-0.75-0.18-1.45-0.87-1.93c-0.8-0.39-1.79-0.21-2.46,0.09c-2.99,1.21-5.23,4.21-6.85,6.68
		c-0.87,1.57-1.73,3.25-1.97,5.17c-0.17,1.51,0.18,2.48,1.05,2.96c0.9,0.45,2.04-0.02,2.48-0.24c3.03-1.56,5.15-4.69,6.82-7.54
		c0.56-0.02,1.12-0.09,1.67-0.21c0.01,0,0.02,0,0.03,0.01c-0.04,0.13-0.4,1.17-0.4,1.17c-1.06,3.03-1.55,5.09-0.55,6.31
		c1.43,1.72,3.8-0.06,5.72-2.42c-0.41,2.82,1.09,3.27,2.23,3.05c1.31-0.35,2.78-1.72,3.45-2.42c-0.22,0.82-0.16,2.3,1.04,2.44
		c0.82,0.15,1.43-0.29,2.14-0.66c2.54-1.35,5.59-5.85,6.38-7.15H91.5C90.37,55.08,88.94,57.25,87.15,58.28L87.15,58.28z
		 M64.32,57.98c-0.15-0.23-0.23-0.5-0.22-0.77c-0.03-1.7,1.84-4.74,3.16-6.4h0c0.55,1.18,1.81,1.94,2.56,2.26
		C68.89,55.13,65.67,59.51,64.32,57.98L64.32,57.98z M70.37,52.17c-0.09,0.06-1.67-0.46-1.98-1.89c-0.26-1.23,0.61-2.19,1.45-2.68
		c0.37-0.28,0.85-0.36,1.3-0.23c0.37,0.24,0.47,0.68,0.47,1.14c-0.01,0.28-0.03,0.57-0.07,0.85l-0.01,0.06
		C71.26,50.38,70.87,51.31,70.37,52.17L70.37,52.17z M83.05,57.44c0,0-0.3,0.26-0.3,0.26c-0.43,0.37-0.87,0.77-1.4,0.57
		c-0.15-0.08-0.25-0.22-0.27-0.39c-0.02-1.07,0.47-2.05,0.94-3.01l0.12-0.25c1.37-2.23,2.96-4.87,5.31-6.69
		c0.39-0.28,0.82-0.51,1.27-0.33c0.13,0.11,0.21,0.26,0.22,0.42c-0.01,0.08-0.04,0.16-0.07,0.23c-0.65,1.03-1.28,2.11-1.88,3.15
		C85.81,53.45,84.58,55.57,83.05,57.44L83.05,57.44z"/>
</g>
</svg>
