<?xml version="1.0" encoding="utf-8"?>
<!-- Generator: Adobe Illustrator 26.5.0, SVG Export Plug-In . SVG Version: 6.00 Build 0)  -->
<svg version="1.1" id="Layer_1" xmlns="http://www.w3.org/2000/svg" xmlns:xlink="http://www.w3.org/1999/xlink" x="0px" y="0px"
	 viewBox="0 0 100 100" style="enable-background:new 0 0 100 100;" xml:space="preserve">
<style type="text/css">
	.st0{fill:#002E6B;}
</style>
<path class="st0" d="M38.88,44.2v4.71h-3.95v-4.71h-2.18v12.37h2.18V51.6h3.95v4.97h2.18V44.2H38.88z M49.05,44.2l-2.28,4.9
	l-2.28-4.9h-2.57l3.76,8.08v4.28h2.18v-4.28l3.76-8.08L49.05,44.2z M58.63,44.2v9.06c0,0.35-0.19,0.62-0.46,0.62h-3.49v-9.68h-2.18
	v12.37h6.44c0.57,0,1.03-0.23,1.37-0.68c0.33-0.45,0.5-1.07,0.5-1.85V44.2H58.63z M69.27,44.2h-6.44v12.37H65v-9.69h3.5
	c0.28,0,0.46,0.3,0.46,0.62v9.07h2.18v-9.84c0-0.77-0.17-1.4-0.5-1.85C70.3,44.43,69.84,44.2,69.27,44.2 M79.6,44.2h-6.44v12.37
	h6.44c0.57,0,1.03-0.23,1.36-0.68c0.34-0.45,0.51-1.07,0.51-1.85v-7.31c0-0.77-0.17-1.4-0.51-1.85C80.63,44.43,80.17,44.2,79.6,44.2
	 M79.29,47.52v5.73c0.01,0.34-0.19,0.63-0.44,0.64c-0.01,0-0.01,0-0.02,0h-3.49v-7.01h3.48C79.1,46.88,79.29,47.15,79.29,47.52
	 M85.26,44.2c-0.57,0-1.03,0.23-1.37,0.68c-0.34,0.46-0.5,1.08-0.5,1.85v9.84h2.17v-3.82h3.96v3.82h2.18V44.2H85.26z M89.52,46.88
	v3.19h-3.96v-2.56c0-0.3,0.18-0.63,0.47-0.63L89.52,46.88z M93.82,56.57H96V44.2h-2.18V56.57z M15.71,59
	c6.88,0,12.46-3.86,12.46-8.61c0-4.76-5.58-8.62-12.46-8.62c-6.88,0-12.45,3.85-12.45,8.62C3.26,55.14,8.84,59,15.71,59
	 M18.06,54.77c-0.21,0.65-0.57,2.04-1.39,2.6c-0.26,0.16-0.54,0.25-0.83,0.26h-0.13c-2.3,0-4.44-0.43-6.23-1.17l-0.07-0.04
	c-0.17-0.07-0.25-0.18-0.25-0.31c0-0.11,0.04-0.19,0.1-0.27l0.11-0.13c0.42-0.46,1.66-1.68,4.01-2.9c0.82-0.42,1.85-0.95,2.93-1.26
	C16.95,51.37,19.3,50.88,18.06,54.77 M24.35,46.09c0.04-0.1,0.1-0.19,0.21-0.2c0.06-0.01,0.14,0.01,0.26,0.11
	c1.46,1.21,2.33,2.73,2.33,4.38c0,2.97-2.83,5.52-6.87,6.64c-0.26,0.07-0.43,0.07-0.49-0.02c-0.04-0.05-0.05-0.15,0-0.27
	c0.03-0.07,0.07-0.14,0.11-0.2c2.2-3.51,3.88-8.68,4.35-10.17C24.29,46.26,24.32,46.16,24.35,46.09 M13.41,45.98
	c0.21-0.65,0.57-2.04,1.39-2.59c0.25-0.17,0.56-0.25,0.83-0.26h0.12c2.3,0,4.44,0.43,6.23,1.17c0.01,0.01,0.06,0.03,0.07,0.04
	c0.16,0.07,0.25,0.18,0.25,0.3c0,0.11-0.04,0.19-0.1,0.27c-0.03,0.04-0.06,0.08-0.11,0.13c-0.41,0.47-1.66,1.69-4,2.9
	c-0.83,0.43-1.85,0.95-2.93,1.26C14.51,49.38,12.17,49.87,13.41,45.98 M11.15,43.74c0.26-0.07,0.43-0.07,0.49,0.02
	c0.04,0.06,0.05,0.15,0,0.27c-0.03,0.07-0.07,0.14-0.11,0.2c-2.2,3.51-3.88,8.68-4.36,10.17c-0.03,0.1-0.07,0.21-0.1,0.27
	c-0.04,0.1-0.1,0.19-0.21,0.2c-0.06,0.01-0.14-0.02-0.26-0.12c-1.46-1.21-2.33-2.73-2.33-4.38C4.28,47.41,7.11,44.86,11.15,43.74"/>
</svg>
