<?xml version="1.0" encoding="utf-8"?>
<!-- Generator: Adobe Illustrator 26.5.0, SVG Export Plug-In . SVG Version: 6.00 Build 0)  -->
<svg version="1.1" id="Layer_1" xmlns="http://www.w3.org/2000/svg" xmlns:xlink="http://www.w3.org/1999/xlink" x="0px" y="0px"
	 viewBox="0 0 100 100" style="enable-background:new 0 0 100 100;" xml:space="preserve">
<style type="text/css">
	.st0{fill:#505967;}
	.st1{fill:#002E6B;}
	.st2{fill:#747F8A;}
</style>
<path class="st0" d="M20.69,59.4c-0.2,0.02-0.41,0.03-0.61,0.03c-0.23,0-0.46-0.03-0.69-0.03l0.68-1.93L20.69,59.4z M21.44,61.59
	c0.12-0.01,0.3-0.04,0.49-0.04s0.41,0.04,0.52,0.04c-0.3-0.76-0.74-1.94-0.99-2.62c-0.24-0.66-0.63-1.76-0.95-2.83
	c-0.07,0.03-0.14,0.04-0.21,0.04c-0.08,0-0.14-0.02-0.22-0.04c-0.16,0.64-0.54,1.66-1.21,3.43l-0.77,2.02
	c0.09-0.02,0.19-0.04,0.29-0.04c0.11,0,0.23,0.03,0.32,0.04c0.11-0.45,0.32-1.1,0.53-1.7c0.26-0.02,0.53-0.03,0.79-0.04
	c0.29,0,0.57,0.02,0.85,0.04l0.28,0.83L21.44,61.59z M23.03,58.03c0,1.34,0,2.63-0.08,3.56c0.14-0.01,0.33-0.04,0.48-0.04
	c0.15,0,0.31,0.04,0.47,0.04c-0.05-0.63-0.07-1.48-0.07-2.65c0-0.79,0-2.15,0.08-2.73c-0.16,0.03-0.32,0.04-0.47,0.04
	c-0.1,0-0.35-0.04-0.47-0.04C23.03,56.98,23.03,57.53,23.03,58.03 M26.97,58.93c0.6-0.13,1.15-0.58,1.15-1.45
	c0-0.33-0.11-0.65-0.3-0.87c-0.29-0.32-0.61-0.38-1.04-0.38c-0.15,0-0.92,0.04-1.09,0.04c-0.34,0-0.51-0.03-0.66-0.04
	c0.05,1.01,0.05,1.12,0.05,2.15c0,1.51-0.01,1.69-0.06,3.23c0.14-0.03,0.3-0.04,0.45-0.04c0.17,0,0.31,0.03,0.44,0.04
	c0-0.21-0.03-1.21-0.03-1.45v-1.12h0.16c0.35,0.6,0.77,1.28,1.11,1.9c0.1,0.18,0.25,0.47,0.35,0.65c0.2-0.04,0.28-0.04,0.54-0.04
	c0.24,0,0.41,0.03,0.59,0.04c-0.41-0.62-0.6-0.89-1.12-1.76c-0.1-0.16-0.25-0.42-0.35-0.59L26.97,58.93z M25.88,56.64
	c0.1-0.01,0.35-0.04,0.47-0.04c0.22,0,0.44,0.04,0.62,0.2c0.23,0.21,0.28,0.48,0.28,0.81c0,0.51-0.24,1.08-0.9,1.08
	c-0.17,0-0.33-0.02-0.46-0.03L25.88,56.64z M30.41,59.76c-0.31-1.09-0.74-2.61-0.95-3.54c-0.17,0.03-0.31,0.04-0.46,0.04
	c-0.16,0-0.38-0.03-0.52-0.04c0.27,0.85,0.51,1.6,0.69,2.19c0.3,1.02,0.51,1.72,0.74,2.59l0.17,0.6c0.09-0.03,0.2-0.04,0.27-0.04
	s0.14,0.02,0.25,0.04c0.11-0.41,0.23-0.91,0.32-1.23c0.26-0.89,0.29-1.02,0.63-2.13l0.2-0.65c0.08,0.25,0.2,0.65,0.27,0.9
	c0.08,0.24,0.41,1.45,0.49,1.71c0.11,0.35,0.14,0.46,0.38,1.4c0.06-0.01,0.19-0.04,0.29-0.04c0.09,0,0.17,0.03,0.26,0.04
	c0.25-0.93,0.28-1.03,0.65-2.28c0.36-1.22,0.59-1.92,0.99-3.1c-0.2,0.06-0.41,0.06-0.6,0c-0.24,1.02-0.35,1.52-0.55,2.19
	c-0.31,1.1-0.35,1.22-0.54,1.82c-0.21-0.68-0.41-1.36-0.61-2.04c-0.11-0.37-0.51-1.94-0.51-1.96c-0.09,0.03-0.16,0.04-0.29,0.04
	c-0.12,0-0.2-0.03-0.29-0.04c-0.2,0.95-0.9,3.26-0.97,3.47l-0.17,0.51L30.41,59.76z M37.09,59.4c-0.2,0.02-0.41,0.03-0.61,0.03
	c-0.23,0-0.46-0.03-0.69-0.03l0.67-1.93L37.09,59.4z M37.85,61.59c0.12-0.01,0.31-0.04,0.49-0.04c0.19,0,0.41,0.04,0.51,0.04
	c-0.29-0.76-0.73-1.94-0.99-2.62c-0.24-0.66-0.63-1.76-0.95-2.83c-0.08,0.03-0.14,0.04-0.21,0.04s-0.15-0.02-0.22-0.04
	c-0.16,0.64-0.54,1.66-1.21,3.43l-0.77,2.02c0.09-0.02,0.19-0.04,0.3-0.04c0.11,0,0.23,0.03,0.32,0.04c0.11-0.45,0.32-1.1,0.53-1.7
	c0.26-0.02,0.53-0.03,0.79-0.04c0.29,0,0.57,0.02,0.84,0.04l0.28,0.83L37.85,61.59z M40.62,59.49c0-0.07,0.04-0.15,0.08-0.25
	c0.28-0.56,0.54-1.15,0.84-1.71c0.1-0.19,0.58-1.1,0.69-1.31c-0.08,0.04-0.14,0.04-0.28,0.04c-0.13,0-0.26-0.02-0.38-0.04
	c-0.48,1.24-0.58,1.51-1.15,2.65c-0.57-1.17-0.81-1.78-1.16-2.65c-0.18,0.04-0.36,0.05-0.54,0.04c-0.14,0-0.3-0.02-0.54-0.04
	c0.35,0.68,0.9,1.77,1.24,2.45l0.39,0.8c0,0.49-0.02,1.51-0.04,2.12c0.13-0.02,0.31-0.04,0.44-0.04c0.15,0,0.31,0.03,0.46,0.04
	c-0.03-0.73-0.05-1.15-0.05-1.81L40.62,59.49z M42.61,60.42c-0.03,0.37-0.04,0.48-0.15,0.88c0.24,0.14,0.67,0.4,1.24,0.4
	c1.21,0,1.68-0.92,1.68-1.71c0-0.22-0.05-0.68-0.32-1.03c-0.19-0.25-0.39-0.34-0.9-0.57c-0.58-0.27-0.92-0.42-0.92-0.99
	c0-0.46,0.26-0.85,0.78-0.85c0.41,0,0.77,0.23,0.87,0.68h0.09c0.06-0.29,0.08-0.36,0.2-0.74c-0.32-0.17-0.62-0.32-1.1-0.32
	c-1.2,0-1.55,0.87-1.55,1.57c0,0.65,0.2,1.05,0.84,1.39c0.19,0.1,0.5,0.23,0.68,0.33c0.13,0.06,0.54,0.28,0.54,0.9
	c0,0.56-0.35,0.98-0.87,0.98c-0.39,0-0.72-0.12-1.03-0.9h-0.09L42.61,60.42z"/>
<path class="st1" d="M4.46,46.48c0-5.92,2.68-7.52,4.71-7.52c3.26,0,4.67,3.19,4.67,6.6c0,1.95-0.2,3.78-1.01,5.26
	c-0.81,1.48-2.16,2.37-3.63,2.37C5.52,53.19,4.46,49.06,4.46,46.48 M14.36,58.58c0.6-0.49,1.53-1.11,2.2-1.45l-4.49-3.3
	c2.76-1.15,4.49-4.07,4.49-8.04c0-5.64-3.63-8.04-7.35-8.04c-4.01,0-7.47,2.63-7.47,8.61c0,1.27,0.24,3.67,1.91,5.67
	c1.73,2.07,3.78,2.37,5.51,2.37c0.22,0,0.44,0,0.66-0.03L14.36,58.58z M25.83,47.51c-0.62,0.04-1.21,0.1-1.83,0.1
	c-0.69,0-1.37-0.07-2.07-0.1l2.03-5.78L25.83,47.51z M28.07,54.07c0.35-0.03,0.91-0.14,1.47-0.14s1.25,0.12,1.55,0.14
	c-0.9-2.28-2.2-5.83-2.96-7.88c-0.72-1.97-1.91-5.26-2.86-8.48c-0.22,0.07-0.41,0.12-0.63,0.12c-0.24,0-0.44-0.04-0.66-0.12
	c-0.48,1.93-1.63,4.99-3.63,10.3l-2.31,6.07c0.28-0.04,0.56-0.14,0.9-0.14c0.32,0,0.69,0.1,0.95,0.14c0.32-1.34,0.96-3.29,1.59-5.1
	c0.79-0.04,1.59-0.09,2.38-0.09c0.85,0,1.69,0.04,2.54,0.09l0.83,2.49L28.07,54.07z M36.89,42.15c0-0.89,0.02-1.78,0.04-2.63
	c1.37,0,2.78,0.03,3.95,0.16c-0.06-0.37-0.1-0.59-0.1-0.85c0-0.19,0.04-0.49,0.1-0.89c-1.91,0.12-3.66,0.14-5.3,0.14
	c-1.53,0-3.73-0.03-5.3-0.14c0.06,0.29,0.1,0.59,0.1,0.87s-0.04,0.59-0.1,0.87c1.02-0.12,2.92-0.16,3.1-0.16h1
	c0.02,0.92,0.04,1.74,0.04,2.61l0.02,6.56c0,1.78-0.12,3.6-0.2,5.38c0.72-0.09,1.01-0.14,1.35-0.14c0.24,0,0.87,0.07,1.45,0.14
	c-0.06-0.66-0.14-1.44-0.14-3.22L36.89,42.15z M47.95,47.51c-0.62,0.04-1.21,0.1-1.82,0.1c-0.69,0-1.37-0.07-2.07-0.1l2.03-5.78
	L47.95,47.51z M50.19,54.07c0.35-0.03,0.91-0.14,1.47-0.14c0.56,0,1.25,0.12,1.55,0.14c-0.9-2.28-2.2-5.83-2.96-7.88
	c-0.72-1.97-1.91-5.26-2.86-8.48c-0.22,0.07-0.41,0.12-0.63,0.12c-0.24,0-0.44-0.04-0.66-0.12c-0.48,1.93-1.63,4.99-3.63,10.3
	l-2.31,6.07c0.28-0.04,0.56-0.14,0.9-0.14c0.32,0,0.69,0.1,0.95,0.14c0.32-1.34,0.95-3.29,1.59-5.1c0.79-0.04,1.59-0.09,2.38-0.09
	c0.85,0,1.69,0.04,2.54,0.09l0.84,2.49L50.19,54.07z M61.22,46.08c1.81-0.4,3.45-1.74,3.45-4.34c0-0.99-0.32-1.95-0.91-2.63
	c-0.86-0.96-1.83-1.16-3.12-1.16c-0.46,0-2.76,0.12-3.28,0.12c-1.01,0-1.53-0.07-1.98-0.12c0.14,3.03,0.14,3.36,0.14,6.44
	c0,4.54-0.02,5.05-0.18,9.68c0.44-0.07,0.91-0.14,1.37-0.14c0.5,0,0.94,0.1,1.33,0.14c0-0.62-0.08-3.64-0.08-4.33V46.4h0.48
	c1.07,1.78,2.31,3.85,3.32,5.71c0.29,0.54,0.73,1.41,1.03,1.95c0.6-0.09,0.84-0.14,1.61-0.14c0.72,0,1.21,0.07,1.77,0.14
	c-1.25-1.86-1.79-2.68-3.36-5.29c-0.3-0.49-0.73-1.27-1.03-1.77L61.22,46.08z M57.96,39.21c0.29-0.03,1.03-0.12,1.41-0.12
	c0.66,0,1.31,0.12,1.85,0.59c0.69,0.62,0.84,1.45,0.84,2.44c0,1.53-0.73,3.25-2.72,3.25c-0.52,0-1-0.04-1.37-0.07V39.21z"/>
<path class="st2" d="M92.27,45.58c0,0.15-1.79,0.29-4.37,0.41c-0.45-0.3-0.8-0.61-1.05-0.87C89.97,45.25,92.27,45.42,92.27,45.58
	 M90.43,40.45c0,0.12-1.51,0.24-3.67,0.35c0.32-0.22,0.64-0.44,0.97-0.64C89.35,40.25,90.43,40.35,90.43,40.45 M74.37,51.49
	c-1,0.02-1.87,0.02-2.56,0.02c-0.98,0-1.78-0.36-1.78-0.8s0.8-0.8,1.78-0.8c0.87,0,2.05,0.01,3.4,0.03
	c-0.52,0.89-0.77,1.43-0.8,1.46L74.37,51.49z M74.91,52.56c0.32,0.46,0.68,0.9,1.06,1.29c0,0,0.16,0.27,0.64,0.04
	c0.49-0.24,0.91-0.56,1.38-1.3c1.37,0.03,2.83,0.06,4.26,0.1c0.12,0.21,0.35,0.62,0.65,1.14c-3.99,0.12-8.33,0.2-10.55,0.2
	c-0.93,0-1.67-0.34-1.67-0.76c0-0.42,0.75-0.76,1.67-0.76c0.68,0,1.55,0.01,2.54,0.02C74.91,52.55,74.91,52.56,74.91,52.56
	 M73.36,56.5c-0.82,0-1.49-0.3-1.49-0.67s0.66-0.67,1.49-0.67c2.17,0,6.62,0.08,10.43,0.21c0.18,0.31,0.37,0.62,0.54,0.91
	C80.41,56.42,75.64,56.5,73.36,56.5 M86.02,58.65c-3.2,0.17-8.7,0.28-11,0.28c-0.64,0-1.17-0.24-1.17-0.53
	c0-0.29,0.52-0.53,1.17-0.53c2.19,0,7.32,0.1,10.57,0.26C85.74,58.31,85.89,58.49,86.02,58.65 M77.67,60.06
	c1.89,0,7.64,0.17,7.64,0.37c0,0.21-5.75,0.37-7.64,0.37c-0.37,0-0.66-0.17-0.66-0.37C77,60.23,77.3,60.06,77.67,60.06 M77.7,46.32
	c-2.38,0.04-4.51,0.07-5.87,0.07c-0.98,0-1.78-0.36-1.78-0.8s0.8-0.8,1.78-0.8c1.59,0,4.21,0.04,7.04,0.1
	C78.46,45.34,78.07,45.83,77.7,46.32 M89.35,42.73c1.4,0.09,2.27,0.19,2.27,0.29c0,0.12-1.06,0.22-2.7,0.31
	C89.27,43.02,89.35,42.75,89.35,42.73 M72.36,43.77c-0.93,0-1.67-0.34-1.67-0.76c0-0.42,0.75-0.76,1.67-0.76
	c1.9,0,5.34,0.05,8.79,0.14c-0.41,0.41-0.81,0.82-1.21,1.25C76.92,43.73,74.04,43.77,72.36,43.77 M82.68,40.95
	c-3.53,0.11-7.35,0.17-9.32,0.17c-0.82,0-1.49-0.29-1.49-0.67c0-0.37,0.66-0.67,1.49-0.67c2.16,0,6.61,0.08,10.41,0.21
	c-0.19,0.16-0.38,0.33-0.57,0.5C83.03,40.65,82.85,40.8,82.68,40.95 M75.03,38.42c-0.64,0-1.17-0.23-1.17-0.53s0.52-0.53,1.17-0.53
	c2.43,0,8.48,0.12,11.56,0.3c-0.2,0.15-0.39,0.31-0.59,0.46C82.79,38.3,77.31,38.42,75.03,38.42 M71.63,48.97
	c-1,0-1.81-0.37-1.81-0.82c0-0.45,0.81-0.81,1.81-0.81c1.25,0,3.13,0.02,5.26,0.06c-0.36,0.5-0.71,1.01-1.04,1.53
	C74.15,48.95,72.67,48.97,71.63,48.97 M77,35.85c0-0.21,0.29-0.37,0.66-0.37c1.89,0,7.64,0.17,7.64,0.37c0,0.21-5.75,0.37-7.64,0.37
	C77.3,36.23,77.01,36.06,77,35.85"/>
<path class="st1" d="M92.46,47.54c0.02,0.41,0.02,0.81-0.01,1.2c-3.35,0.16-6.52,0.39-6.52,0.66c0,0.27,3.1,0.5,6.41,0.65
	c-0.06,0.45-0.14,0.89-0.23,1.33c-3.26,0.16-6.28,0.39-6.28,0.65c0,0.25,2.82,0.48,5.95,0.63c-0.14,0.46-0.3,0.93-0.49,1.37
	c-2.68,0.15-4.9,0.36-4.9,0.58c0,0.21,1.94,0.4,4.38,0.54c-0.14,0.26-0.28,0.52-0.43,0.77c-0.17,0.27-0.33,0.54-0.51,0.79
	c-1.53,0.13-2.58,0.29-2.58,0.46c0,0.14,0.75,0.28,1.91,0.4c-0.68,0.79-1.43,1.47-2.25,2.03c0,0-1.03-1.05-1.89-2.28
	c-0.76-1.1-2.38-4-2.76-4.65c-0.38-0.65-0.63-0.84-1.08-0.65c-0.6,0.25-1.29,0.37-1.51,0.37s-0.33-0.1,0.03-0.27
	c0.35-0.17,1.76-0.95,2.46-2.59c0.78-1.83,0.09-4.36,0.09-4.36c-0.26,1.36-0.86,1.86-0.86,1.86c0.2-1.26-0.02-2.39-0.54-3.19
	l-0.29,1.59c0,0-0.18-0.01-0.63,0.44c-0.45,0.46-0.57,1.11-0.57,1.11c0.35,0.17,0.78-0.25,0.78-0.25c-0.55,2.42-1.33,4.39-1.9,5.43
	c-0.57,1.04-1.04,1.44-1.61,1.71c-0.48,0.23-0.64-0.04-0.64-0.04c-0.38-0.39-0.75-0.83-1.06-1.29c0,0-0.03-0.05,0.06-0.05
	c0.23,0,0.66-0.47,0.75-0.67c0.11-0.22,0.09-0.4,0.04-0.41c-0.05-0.01-0.14,0.17-0.6,0.51s-0.66,0.11-0.81-0.08
	c-0.11-0.15,0-0.34,0.07-0.46c0.07-0.11,2.46-5.37,8.78-10.91c8.28-7.25,13.57-9.22,13.88-9.36c0.2-0.09,0.53-0.21,0.6-0.12
	c0.08,0.1,0.12,0.19,0.11,0.3c-0.01,0.12-0.06,0.18-0.44,0.37c-3.18,1.66-6.89,4.42-9,6.02c-2.59,1.5-5.07,3.63-5.16,3.68
	c-0.2,0.14-0.05,0.36,0.07,0.27c4.38-3.44,9.51-5.79,15.19-7.72c0.27-0.09,0.42-0.09,0.47-0.02c0.05,0.08,0.08,0.17,0.08,0.27
	c0.01,0.12-0.08,0.19-0.31,0.29c-6.09,2.68-10.59,5.17-13.48,7.47c0,0-0.3,0.21-0.3,0.46c0,0.1,0.16,0.11,0.16,0.11
	c1.45,0.03,3.38,0.13,4.3,0.2c0,0-0.13,0.55-1.01,1c-0.68,0.34-1.31,0.29-1.93,0.29c-0.14,0-0.26,0.16-0.14,0.34
	C86.32,44.44,87.64,46.97,92.46,47.54 M48.29,60.74h-0.81c0,0-0.11-0.6,0.19-0.82c0.29-0.23,0.63-0.41,0.63-0.41L48.29,60.74z
	 M52.17,58.52c0,0-0.5,0.34-0.81,0.67c-0.31,0.33,0.07,0.46,0.07,0.46v1.11h-2.37v-3.87c0,0-0.87,0.94-0.94,1.06
	c-0.08,0.13,0.2,0.25,0.2,0.25l-0.05,0.37c0,0-0.35,0.21-0.76,0.54s-0.72,0.75-0.72,1.04c0,0.29-0.11,1.44-0.11,1.44h5.49
	L52.17,58.52L52.17,58.52z M47.26,57.1c0.27,0,0.46-0.12,0.46-0.38c0-0.26-0.13-0.44-0.46-0.44c-0.29,0-0.38,0.15-0.38,0.44
	C46.88,57,46.99,57.1,47.26,57.1 M48.27,57.1c0.27,0,0.46-0.12,0.46-0.38c0-0.26-0.13-0.44-0.46-0.44c-0.3,0-0.38,0.15-0.38,0.44
	C47.89,57,48,57.1,48.27,57.1 M49.8,61.92c-0.29,0-0.38,0.15-0.38,0.43s0.11,0.38,0.38,0.38c0.27,0,0.46-0.12,0.46-0.38
	C50.27,62.1,50.14,61.92,49.8,61.92 M50.85,61.92c-0.29,0-0.38,0.15-0.38,0.43s0.11,0.38,0.38,0.38c0.27,0,0.46-0.12,0.46-0.38
	C51.32,62.1,51.19,61.92,50.85,61.92 M62.69,57.03c0.27,0,0.46-0.12,0.46-0.37s-0.13-0.44-0.46-0.44c-0.29,0-0.38,0.15-0.38,0.44
	C62.31,56.93,62.42,57.03,62.69,57.03 M63.74,57.03c0.27,0,0.46-0.12,0.46-0.37s-0.13-0.44-0.46-0.44c-0.29,0-0.38,0.15-0.38,0.44
	C63.36,56.93,63.47,57.03,63.74,57.03 M66.63,57.14c-0.15,0.15-0.11,0.33,0.08,0.3v4.16h0.78v-5.17
	C67.5,56.42,66.78,56.99,66.63,57.14 M63.51,59.47h-0.51c0-0.33,0.51-0.51,0.51-0.51V59.47z M60.19,60.15c0,0.15-0.01,0.39-0.02,0.6
	h-4.4v-0.92c0.11-0.35,0.31-0.39,0.61-0.39h3.21C60.3,59.44,60.19,59.87,60.19,60.15 M65.34,57.44v3.31h-1.05v-3.01
	c0,0-0.21,0.1-0.51,0.25c-0.29,0.16-1.34,0.66-1.34,1.35v0.79h1.07v0.62h-2.54c0-0.14,0.01-0.36,0.01-0.67
	c0-0.99-0.71-1.53-1.34-1.53h-2.94c-0.51,0-0.76,0.15-0.9,0.31v-2.54c0,0-0.46,0.38-0.8,0.69c-0.34,0.3,0,0.51,0,0.51v3.23h-0.97
	L54,57.98c0,0-0.67,0.58-0.86,0.76s-0.08,0.33,0.13,0.33c0,0-0.04,2.04-0.04,2.53s-0.34,1.04-1.06,0.79c0,0-0.23,0.05-0.04,0.26
	c0.19,0.21,0.41,0.36,0.67,0.36c0.25,0,1.18-0.21,1.18-1.4h12.13v-5.17c0,0-0.72,0.56-0.86,0.7C65.1,57.28,65.15,57.47,65.34,57.44"
	/>
</svg>
