<?xml version="1.0" encoding="utf-8"?>
<!-- Generator: Adobe Illustrator 26.5.0, SVG Export Plug-In . SVG Version: 6.00 Build 0)  -->
<svg version="1.1" id="Layer_1" xmlns="http://www.w3.org/2000/svg" xmlns:xlink="http://www.w3.org/1999/xlink" x="0px" y="0px"
	 viewBox="0 0 100 100" style="enable-background:new 0 0 100 100;" xml:space="preserve">
<style type="text/css">
	.st0{fill:#273991;}
	.st1{fill:#F99F1B;}
</style>
<g>
	<path class="st0" d="M20.84,52.17l-2.56-19.3c-0.37-2.33-1.81-3.85-3.34-3.54H3.09L3,30.25C12.22,33.7,18.31,42.06,20.84,52.17z
		 M29.46,29.76l-7.49,29.79l-0.77-4.49c-2.44-7.4-6.1-13.64-10.61-18.09l6.84,36.4h8.08l12.04-43.6L29.46,29.76z M40.65,29.76
		l-4.78,43.7h7.58l4.79-43.7L40.65,29.76z M90.81,29.76h-5.94c-1.71-0.35-3.35,1.15-4,3.64l-11.3,40.01h8.02c0,0,1.3-5.39,1.61-6.57
		h9.78c0.23,1.51,0.92,6.52,0.92,6.52H97L90.81,29.76z M81.4,57.91c0.64-2.5,3.03-12.21,3.03-12.21s0.64-2.5,1.02-4.16l0.53,3.76
		l1.76,12.61H81.4z M63.65,47.26c-2.65-2.01-4.29-3.38-4.28-5.41c0.02-2.03,1.38-3.76,4.37-3.76c1.96-0.08,3.91,0.49,5.72,1.68
		l0.7,0.5l1.03-9.45c-2.19-1.24-4.51-1.85-6.84-1.82c-7.58,0-12.87,5.91-12.92,14.41c0,6.26,3.79,9.78,6.69,11.81
		c2.9,2.03,4.02,3.52,4.02,5.43c0,2.93-2.38,4.28-4.55,4.28c-2.48,0.09-4.94-0.72-7.19-2.36l-0.99-0.71l-1.08,9.78
		c2.73,1.58,5.61,2.38,8.52,2.36c8.02,0,13.24-5.86,13.3-14.93C70.13,54.16,68.1,50.38,63.65,47.26z"/>
	<path class="st1" d="M18.28,32.88c-0.37-2.33-1.81-3.85-3.34-3.54H3.09L3,30.25c9.22,3.47,15.31,11.81,17.84,21.94L18.28,32.88z"/>
</g>
</svg>
