<?xml version="1.0" encoding="utf-8"?>
<!-- Generator: Adobe Illustrator 26.5.0, SVG Export Plug-In . SVG Version: 6.00 Build 0)  -->
<svg version="1.1" id="Layer_1" xmlns="http://www.w3.org/2000/svg" xmlns:xlink="http://www.w3.org/1999/xlink" x="0px" y="0px"
	 viewBox="0 0 100 100" style="enable-background:new 0 0 100 100;" xml:space="preserve">
<style type="text/css">
	.st0{fill:#415FFF;}
</style>
<path class="st0" d="M87.51,59.18h-8.19c-4.6,0-5.01-5.31-5.01-6.94c0-1.62,0.41-6.94,5.01-6.94h8.19c4.6,0,5.01,5.31,5.01,6.94
	S92.12,59.18,87.51,59.18 M87.69,39.48h-8.23c-8.55,0-9.31,9.77-9.31,12.76c0,2.99,0.76,12.76,9.31,12.76h8.23
	C96.24,65,97,55.23,97,52.24C97,49.26,96.24,39.48,87.69,39.48 M68.51,40.38h-2.67c-1.14,0-1.38,0.27-1.82,1.17
	c-0.44,0.9-8.07,16.99-8.07,16.99c-0.24,0.49-0.5,0.69-0.82,0.69c-0.32,0-0.58-0.2-0.82-0.69c0,0-7.63-16.09-8.07-16.99
	c-0.44-0.9-0.68-1.17-1.82-1.17h-2.67c-0.61,0-0.89,0.66-0.51,1.47l9.11,19.11c1.41,2.87,2.45,4.03,4.77,4.03
	c2.32,0,3.36-1.16,4.77-4.03l9.11-19.11C69.4,41.04,69.12,40.38,68.51,40.38 M33.4,41.94c0-1.12,0.31-1.56,1.1-1.56h1.96
	c0.79,0,1.1,0.44,1.1,1.56v21.5c0,1.12-0.31,1.56-1.1,1.56H34.5c-0.79,0-1.1-0.44-1.1-1.56L33.4,41.94z M33.24,35.13
	c-0.63-0.89-0.63-1.59,0-2.48l1.36-1.9c0.63-0.89,1.14-0.89,1.77,0l1.36,1.9c0.63,0.89,0.63,1.59,0,2.48l-1.36,1.9
	c-0.63,0.89-1.14,0.89-1.77,0L33.24,35.13L33.24,35.13z M29.19,40.38h-2.66c-1.14,0-1.38,0.27-1.82,1.17
	c-0.44,0.9-8.06,16.99-8.06,16.99c-0.24,0.49-0.5,0.69-0.82,0.69c-0.32,0-0.58-0.2-0.82-0.69c0,0-7.62-16.09-8.06-16.99
	c-0.44-0.9-0.67-1.17-1.82-1.17H2.46c-0.68,0-0.89,0.66-0.51,1.47c0.39,0.81,9.1,19.11,9.1,19.11C12.47,63.84,13.5,65,15.82,65
	c2.32,0,3.36-1.16,4.77-4.03l9.1-19.11C30.08,41.04,29.87,40.38,29.19,40.38"/>
</svg>
