<?xml version="1.0" encoding="utf-8"?>
<!-- Generator: Adobe Illustrator 26.5.0, SVG Export Plug-In . SVG Version: 6.00 Build 0)  -->
<svg version="1.1" id="Layer_1" xmlns="http://www.w3.org/2000/svg" xmlns:xlink="http://www.w3.org/1999/xlink" x="0px" y="0px"
	 viewBox="0 0 100 100" style="enable-background:new 0 0 100 100;" xml:space="preserve">
<style type="text/css">
	.st0{fill:#075FA9;}
</style>
<g id="g3" transform="matrix(0.08328067,0,0,0.08315353,32.266371,-29.033444)">
	<path id="polyline7" class="st0" d="M614.9,1003.67c-6.1,0-11.49,0.99-16.17,2.96c-3.5,1.48-6.75,3.71-9.69,6.78
		c-2.94,3.03-5.27,6.45-6.97,10.27c-2.28,5.18-3.44,11.6-3.44,19.24c0,11.92,3.3,21.3,9.88,28.09c6.58,6.82,15.44,10.21,26.59,10.21
		c11.02,0,19.82-3.4,26.41-10.25c6.57-6.84,9.85-16.3,9.85-28.4c0-12.22-3.3-21.75-9.93-28.61
		C634.79,1007.1,625.94,1003.67,614.9,1003.67z M459.19,1003.68c-7.17,0-13.16,1.25-17.96,3.74c-6.31,3.24-11.1,7.89-14.38,13.96
		c-3.27,6.07-4.92,13.01-4.92,20.8c0,7.21,1.48,13.87,4.4,19.99c2.94,6.11,7.32,10.81,13.15,14.11c5.83,3.29,12.67,4.94,20.52,4.94
		c6.16,0,12.27-1.16,18.27-3.52c6.02-2.33,10.62-5.03,13.79-8.09v-29.87h-32.64v12.62l17.34,0v9.5c-2.29,1.78-5.02,3.3-8.2,4.53
		c-3.19,1.25-6.38,1.87-9.54,1.87c-6.41,0-11.61-2.22-15.54-6.67c-3.97-4.47-5.95-11.12-5.95-20.03c0-8.27,1.95-14.48,5.87-18.67
		c3.9-4.2,9.15-6.29,15.78-6.29c4.36,0,8,1.06,10.92,3.19c2.91,2.13,4.89,5.05,5.96,8.72l15.03-2.81
		c-1.5-6.89-4.87-12.28-10.11-16.19C475.77,1005.64,468.5,1003.68,459.19,1003.68z M118.32,1004.95l-29.22,74.98h16.08l6.18-17.03
		h29.97l6.55,17.03h16.46l-30.02-74.98H118.32z M345.28,1004.95l-29.21,74.98h16.05l6.19-17.03h29.96l6.56,17.03h16.46l-30.03-74.98
		H345.28z M506.1,1004.95v74.98h15.14v-31.3h3.06c3.48,0,6.04,0.3,7.62,0.84c1.61,0.57,3.12,1.59,4.56,3.13
		c1.43,1.52,4.09,5.19,7.97,11.02l10.96,16.32h18.09l-9.14-14.62c-3.62-5.85-6.5-9.89-8.63-12.18c-2.12-2.3-4.83-4.39-8.1-6.31
		c6.58-0.95,11.53-3.26,14.84-6.92c3.31-3.67,4.96-8.32,4.96-13.94c0-4.43-1.09-8.37-3.27-11.83c-2.18-3.43-5.11-5.83-8.73-7.17
		c-3.62-1.34-9.45-2.01-17.46-2.01H506.1z M-3.64,1004.96l17.9,74.98h16.41l14.89-56.06l14.93,56.06h16.07l18.2-74.98H79.53
		l-11.51,52.38l-13.13-52.38h-18l-13.72,51.5l-11.3-51.5H-3.64z M172.54,1004.96v74.98h14.06v-48.9l30.24,48.9h15.18v-74.98h-14.06
		v50.07l-30.69-50.07H172.54z M247.98,1004.96v74.97h28.49c5.6,0,10.06-0.54,13.4-1.58c4.47-1.44,8.01-3.44,10.64-5.99
		c3.48-3.37,6.16-7.8,8.04-13.25c1.53-4.47,2.3-9.79,2.3-15.96c0-7.02-0.82-12.92-2.46-17.72c-1.64-4.79-4.03-8.83-7.17-12.14
		c-3.14-3.32-6.89-5.61-11.3-6.9c-3.27-0.96-8.02-1.42-14.26-1.42H247.98z M663.08,1004.96v39.99c0,8.38,0.49,14.74,1.48,19.03
		c0.69,2.91,2.11,5.67,4.25,8.33c2.16,2.63,5.07,4.78,8.78,6.44c3.69,1.65,9.12,2.48,16.29,2.48c5.92,0,10.74-0.77,14.42-2.28
		c3.69-1.51,6.62-3.56,8.83-6.11c2.2-2.57,3.71-5.69,4.52-9.42c0.82-3.72,1.22-10.08,1.22-19.09v-39.37h-15.12v41.46
		c0,5.95-0.24,10.21-0.68,12.74c-0.45,2.56-1.76,4.72-3.94,6.48c-2.18,1.75-5.42,2.63-9.71,2.63c-4.23,0-7.56-0.93-10-2.79
		c-2.44-1.85-3.98-4.32-4.62-7.39c-0.39-1.91-0.57-6.08-0.57-12.54v-40.6H663.08z M738.83,1004.96v74.97h15.15v-28.27h9.87
		c6.84,0,12.1-0.37,15.7-1.1c2.67-0.58,5.29-1.74,7.86-3.53c2.57-1.8,4.7-4.26,6.36-7.4c1.67-3.13,2.51-6.99,2.51-11.6
		c0-5.98-1.45-10.85-4.35-14.61c-2.89-3.77-6.49-6.23-10.78-7.35c-2.79-0.75-8.81-1.1-18.02-1.1H738.83z M615.05,1016.62
		c6.25,0,11.24,2.11,15.01,6.34c3.77,4.24,5.65,10.64,5.65,19.23c0,8.7-1.93,15.23-5.8,19.57c-3.87,4.35-8.82,6.52-14.86,6.52
		c-6.04,0-11.01-2.18-14.93-6.58c-3.92-4.38-5.87-10.81-5.87-19.31c0-8.62,1.91-15.08,5.73-19.35
		C603.78,1018.76,608.81,1016.62,615.05,1016.62z M263.12,1017.65h6.8c6.17,0,10.3,0.23,12.42,0.71c2.84,0.62,5.18,1.78,7.01,3.51
		c1.86,1.75,3.28,4.17,4.31,7.27c1.02,3.11,1.54,7.57,1.54,13.36c0,5.79-0.53,10.37-1.54,13.73c-1.03,3.36-2.35,5.78-3.96,7.24
		c-1.62,1.47-3.66,2.51-6.12,3.12c-1.87,0.48-4.93,0.71-9.15,0.71h-11.31V1017.65z M753.98,1017.65h7.31c5.46,0,9.08,0.16,10.89,0.5
		c2.46,0.45,4.48,1.55,6.1,3.32c1.59,1.77,2.39,4.03,2.39,6.74c0,2.23-0.55,4.15-1.72,5.84c-1.14,1.66-2.71,2.9-4.73,3.68
		c-2,0.78-6,1.17-11.97,1.17h-8.28V1017.65z M521.24,1017.65h11.83c6.13,0,9.8,0.08,11.03,0.24c2.47,0.4,4.37,1.39,5.72,2.96
		c1.33,1.54,2.01,3.58,2.01,6.11c0,2.24-0.52,4.11-1.53,5.61c-1.03,1.5-2.45,2.56-4.26,3.18c-1.8,0.62-6.33,0.91-13.6,0.91h-11.2
		V1017.65z M126.13,1022.44l10.33,27.85H116L126.13,1022.44z M353.1,1022.44l10.33,27.85h-20.46L353.1,1022.44z"/>
	<path id="path27" class="st0" d="M634.99,805.44c-5.21,0-9.36,4.17-9.41,9.33v133.04c0.04,4.87,3.81,8.78,8.6,9.2h152.77
		c4.7-0.42,8.42-4.2,8.61-9l-0.23-134.3c-0.58-4.64-4.36-8.27-9.16-8.27H634.99z M308.98,805.49v30.58h-48.26v17.36h48.14
		c-2.51,37.2-42.36,48.24-48.14,48.24v20.49c4.91,0.6,43.02-2.63,62.28-34.07c19.28,31.53,57.54,34.67,62.46,34.07v-20.49
		c-5.79,0-45.64-10.27-48.11-48.24h48.11v-17.36h-48.25v-30.58H308.98z M506.86,805.74c0,0-7.38,0.12-7.38,6.79v5.96h-46.25
		l0.06-8.22c0,0,0.03-5.4-8.28-2.37c-5.49,2.01-17.95,6.95-25.82,10.1c-7.31,3.16-7.02,9.78-7.02,9.78v15.33l12.28-4.51v49.77
		c0,0-0.72,10.9,9.42,10.9h55.63l0.02,7.59h-77.35v15.34h41.63c-11.6,10.69-32.6,14.68-41.63,15.37v19.52
		c5.34-0.11,48.02-0.37,76.78-34.89h0.57l0.06,34.89h11.02c17.49,0,17.18-12.21,17.18-12.21v-22.69h0.62
		c29.61,35.5,71.44,34.79,76.8,34.89v-19.99c-7.36-0.42-31.24-3.75-41.67-14.9h41.61v-15.34h-77.35v-7.59h77.42v-14.76h-67.45v-7.24
		h67.45v-14.79h-67.45v-7.18h67.45v-14.78h-67.45v-7.21h67.45v-9.81c0,0,0.44-4.98-5.33-4.98h-62.12v-12.75
		C527.74,805.74,506.86,805.74,506.86,805.74z M215.84,809.9l-8.7,20.32l0.05,0.03l0.12-0.36c0,0,10.72,2.44,19.9,6.54
		c9.84,3.64,18.45,8.14,18.94,8.4l8.57-20.03c0,0-10.29-6.36-18.96-9.2C226.67,811.92,215.84,809.9,215.84,809.9z M1.47,813
		c-5.95,0-5.66,5.44-5.66,5.44v11.91h49.86v34.5c0,61.06-46.22,66.52-46.22,66.52l-0.02,24.11c0,0,66.03-3.59,73.73-77.44h61.98
		v56.08h-33.93v15.08c0,0-0.2,5.94,6.09,5.94h40.77c16.05,0,15.35-12.21,15.35-12.21v-76.94c0,0,0.17-8.94-10.89-8.94H73.94v-26.69
		h104.81v-11.95c0,0,0.69-5.41-5.21-5.41C173.54,813,1.47,813,1.47,813z M653.84,820.64h113.26v121.97H653.84V820.64z
		 M715.64,831.59v14.8h-51.13v15.25h50.91c-15.42,28.69-45.32,38.49-50.3,39.98V925c6.03-0.88,39.2-10.73,50.53-28.01v35.6h11.06
		c18.05,0,17.19-12.19,17.19-12.19v-58.76h15.28v-15.25H743.9v-14.8H715.64z M452.72,833.28h46.76v7.21h-46.76V833.28z
		 M202.64,851.28v17.36h20.57v29.07c0,28.02-20.53,32.79-20.53,32.79l-0.04,24.2c0,0,20.02-0.21,34.1-19.75
		c5.56,11.9,16.92,21.76,35.64,22.12c6.81,0.14,82.17,0.02,105.96,0c7.68,0,7.12-6.17,7.12-6.17v-13.52c0,0-102.46,0.19-107.58,0
		c-20.51-0.72-28.64-14.54-27.92-45.73l-0.1,0.05c0.19-2.72,0.35-5.35,0.35-8.32v-22.66c0,0,0.85-9.43-8.1-9.43
		C242.12,851.28,202.64,851.28,202.64,851.28z M452.72,855.27h46.76v7.18h-46.76V855.27z M452.72,877.25h46.76v7.24h-46.76V877.25z"
		/>
</g>
<path id="path5" class="st0" d="M12.86,36.85c-6.78,0.15-12.16,5.77-12,12.55C1,56.17,6.62,61.54,13.4,61.4
	c6.78-0.15,12.16-5.77,12.01-12.55C25.26,42.07,19.64,36.7,12.86,36.85 M13.35,59.13c-3.62,0.08-6.84-1.76-8.7-4.58
	c0.86,0.39,1.87,0.66,2.96,0.75c2.28,0.19,4.33-0.44,5.51-1.53c1.17,1.09,3.22,1.72,5.5,1.53c1.11-0.09,2.13-0.37,3-0.77
	C19.86,57.24,16.83,59.05,13.35,59.13 M12.45,43.08c0,0,2.48-0.55,2.37,2.82c-0.04,1.63-0.33,3.21-0.66,4.09
	c-0.26,0.72-0.63,0.74-0.91,0.75C13.23,47.07,12.45,43.08,12.45,43.08 M19.54,51.94c-1.91,0.75-3.81,0.86-5.17,0.43
	c1.23-1.55,1.72-3.48,1.94-4.82c0.19-1.12,0.27-2.33,0.17-3.6c-0.22-2.82-2.57-3.02-3.38-3.15c-0.8-0.14-2.77-0.15-2.77-0.15
	s1.2,4.8,1.47,11.74c-1.36,0.41-3.23,0.3-5.1-0.45c-1.63-0.63-2.92-1.6-3.71-2.62l-0.01-0.1c-0.13-5.61,4.32-10.25,9.92-10.37
	c5.6-0.13,10.25,4.32,10.37,9.92c0,0.18-0.02,0.35-0.02,0.53C22.47,50.33,21.17,51.3,19.54,51.94"/>
</svg>
